<?xml version="1.0" encoding="UTF-8" standalone="no"?>
<!DOCTYPE svg PUBLIC "-//W3C//DTD SVG 1.1//EN" "http://www.w3.org/Graphics/SVG/1.1/DTD/svg11.dtd">
<svg width="100%" height="100%" viewBox="0 0 230 65" version="1.1" xmlns="http://www.w3.org/2000/svg" xmlns:xlink="http://www.w3.org/1999/xlink" xml:space="preserve" xmlns:serif="http://www.serif.com/" style="fill-rule:evenodd;clip-rule:evenodd;stroke-linejoin:round;stroke-miterlimit:2;">
    <g transform="matrix(1,0,0,1,-125.832641,213.963308)">
        <g transform="matrix(0.213333,0,0,2.191821,40.803445,-286.822529)">
            <g transform="matrix(1.522503,0,0,0.148188,208.478102,-24.331667)">
                <text x="420.25px" y="475.98px" style="font-family:'Montserrat-Regular', 'Montserrat';font-size:58.333px;fill:white;">C<tspan x="459.1px 493.925px 531.667px 554.359px 575.242px 608.725px 646.584px 677.15px " y="475.98px 475.98px 475.98px 475.98px 475.98px 475.98px 475.98px 475.98px ">onfrence</tspan></text>
                <g transform="matrix(58.333333,0,0,58.333333,835.525177,547.088691)">
                </g>
                <text x="420.25px" y="547.089px" style="font-family:'Montserrat-Regular', 'Montserrat';font-size:58.333px;fill:white;">&amp;<tspan x="457.525px 471.059px 510.434px 543.917px 565.559px 583.059px 617.884px 639.059px 699.2px 731.867px 769.725px 800.292px " y="547.089px 547.089px 547.089px 547.089px 547.089px 547.089px 547.089px 547.089px 547.089px 547.089px 547.089px 547.089px "> Performance</tspan></text>
            </g>
            <g transform="matrix(0.443879,0,0,0.072906,234.274057,20.044604)">
                <g transform="matrix(7.819262,0,0,4.633637,-642.381125,-4839.393098)">
                    <path d="M148.41,1119.609C144.849,1119.609 141.629,1118.835 138.751,1117.288C135.872,1115.74 133.61,1113.594 131.962,1110.849C130.315,1108.103 129.492,1105 129.492,1101.539C129.492,1098.078 130.315,1094.975 131.962,1092.23C133.61,1089.485 135.872,1087.338 138.751,1085.791C141.629,1084.243 144.866,1083.47 148.46,1083.47C151.488,1083.47 154.225,1084.002 156.671,1085.067C159.117,1086.132 161.171,1087.663 162.835,1089.659L157.644,1094.451C155.281,1091.722 152.353,1090.358 148.859,1090.358C146.696,1090.358 144.766,1090.832 143.069,1091.781C141.372,1092.729 140.049,1094.052 139.1,1095.749C138.152,1097.446 137.678,1099.376 137.678,1101.539C137.678,1103.702 138.152,1105.632 139.1,1107.329C140.049,1109.027 141.372,1110.349 143.069,1111.298C144.766,1112.246 146.696,1112.72 148.859,1112.72C152.353,1112.72 155.281,1111.339 157.644,1108.577L162.835,1113.369C161.171,1115.399 159.108,1116.947 156.646,1118.011C154.183,1119.076 151.438,1119.609 148.41,1119.609Z" style="fill:url(#_Linear1);fill-rule:nonzero;"/>
                    <path d="M183.451,1119.609C179.823,1119.609 176.554,1118.827 173.642,1117.263C170.73,1115.699 168.451,1113.544 166.804,1110.799C165.156,1108.053 164.333,1104.967 164.333,1101.539C164.333,1098.112 165.156,1095.025 166.804,1092.28C168.451,1089.534 170.73,1087.38 173.642,1085.816C176.554,1084.252 179.823,1083.47 183.451,1083.47C187.078,1083.47 190.339,1084.252 193.234,1085.816C196.129,1087.38 198.409,1089.534 200.073,1092.28C201.736,1095.025 202.568,1098.112 202.568,1101.539C202.568,1104.967 201.736,1108.053 200.073,1110.799C198.409,1113.544 196.129,1115.699 193.234,1117.263C190.339,1118.827 187.078,1119.609 183.451,1119.609ZM183.451,1112.72C185.514,1112.72 187.377,1112.246 189.041,1111.298C190.705,1110.349 192.011,1109.027 192.96,1107.329C193.908,1105.632 194.382,1103.702 194.382,1101.539C194.382,1099.376 193.908,1097.446 192.96,1095.749C192.011,1094.052 190.705,1092.729 189.041,1091.781C187.377,1090.832 185.514,1090.358 183.451,1090.358C181.387,1090.358 179.524,1090.832 177.86,1091.781C176.196,1092.729 174.89,1094.052 173.942,1095.749C172.993,1097.446 172.519,1099.376 172.519,1101.539C172.519,1103.702 172.993,1105.632 173.942,1107.329C174.89,1109.027 176.196,1110.349 177.86,1111.298C179.524,1112.246 181.387,1112.72 183.451,1112.72Z" style="fill:url(#_Linear2);fill-rule:nonzero;"/>
                    <path d="M239.706,1084.069L239.706,1119.01L233.067,1119.01L215.646,1097.796L215.646,1119.01L207.66,1119.01L207.66,1084.069L214.349,1084.069L231.719,1105.283L231.719,1084.069L239.706,1084.069Z" style="fill:url(#_Linear3);fill-rule:nonzero;"/>
                </g>
                <g transform="matrix(5.986334,0,0,3.547457,-1265.615131,-3458.259852)">
                    <path d="M281.336,1090.558L281.336,1099.792L297.509,1099.792L297.509,1106.281L281.336,1106.281L281.336,1119.01L273.249,1119.01L273.249,1084.069L299.655,1084.069L299.655,1090.558L281.336,1090.558Z" style="fill:url(#_Linear4);fill-rule:nonzero;"/>
                    <path d="M319.222,1119.609C315.595,1119.609 312.325,1118.827 309.413,1117.263C306.502,1115.699 304.222,1113.544 302.575,1110.799C300.928,1108.053 300.104,1104.967 300.104,1101.539C300.104,1098.112 300.928,1095.025 302.575,1092.28C304.222,1089.534 306.502,1087.38 309.413,1085.816C312.325,1084.252 315.595,1083.47 319.222,1083.47C322.849,1083.47 326.11,1084.252 329.005,1085.816C331.901,1087.38 334.18,1089.534 335.844,1092.28C337.508,1095.025 338.34,1098.112 338.34,1101.539C338.34,1104.967 337.508,1108.053 335.844,1110.799C334.18,1113.544 331.901,1115.699 329.005,1117.263C326.11,1118.827 322.849,1119.609 319.222,1119.609ZM319.222,1112.72C321.285,1112.72 323.149,1112.246 324.813,1111.298C326.476,1110.349 327.783,1109.027 328.731,1107.329C329.679,1105.632 330.154,1103.702 330.154,1101.539C330.154,1099.376 329.679,1097.446 328.731,1095.749C327.783,1094.052 326.476,1092.729 324.813,1091.781C323.149,1090.832 321.285,1090.358 319.222,1090.358C317.159,1090.358 315.295,1090.832 313.631,1091.781C311.967,1092.729 310.661,1094.052 309.713,1095.749C308.765,1097.446 308.29,1099.376 308.29,1101.539C308.29,1103.702 308.765,1105.632 309.713,1107.329C310.661,1109.027 311.967,1110.349 313.631,1111.298C315.295,1112.246 317.159,1112.72 319.222,1112.72Z" style="fill:url(#_Linear5);fill-rule:nonzero;"/>
                    <path d="M364.196,1119.01L357.458,1109.276L350.02,1109.276L350.02,1119.01L341.934,1119.01L341.934,1084.069L357.058,1084.069C360.153,1084.069 362.84,1084.584 365.12,1085.616C367.399,1086.648 369.155,1088.112 370.386,1090.009C371.617,1091.905 372.233,1094.152 372.233,1096.747C372.233,1099.343 371.609,1101.581 370.361,1103.461C369.113,1105.341 367.341,1106.78 365.045,1107.779L372.882,1119.01L364.196,1119.01ZM364.046,1096.747C364.046,1094.784 363.414,1093.278 362.15,1092.23C360.885,1091.182 359.038,1090.658 356.609,1090.658L350.02,1090.658L350.02,1102.837L356.609,1102.837C359.038,1102.837 360.885,1102.305 362.15,1101.24C363.414,1100.175 364.046,1098.677 364.046,1096.747Z" style="fill:url(#_Linear6);fill-rule:nonzero;"/>
                    <path d="M407.923,1119.01L407.873,1098.045L397.59,1115.316L393.946,1115.316L383.713,1098.494L383.713,1119.01L376.126,1119.01L376.126,1084.069L382.815,1084.069L395.893,1105.782L408.771,1084.069L415.41,1084.069L415.51,1119.01L407.923,1119.01Z" style="fill:url(#_Linear7);fill-rule:nonzero;"/>
                </g>
                <g transform="matrix(7.615316,0,0,4.51278,-1099.332569,-5137.459684)">
                    <g transform="matrix(8.608904,0,0,8.608904,305.146325,1266.26193)">
                    </g>
                    <text x="192.18px" y="1266.262px" style="font-family:'Montserrat-Medium', 'Montserrat';font-weight:500;font-size:8.609px;fill:white;">p<tspan x="197.793px 202.873px 210.225px 215.235px 218.403px 223.413px 229.026px 231.084px 236.568px 241.122px 243.179px 247.923px 254.896px 261.869px 269.833px 271.89px 277.891px 284.864px 291.837px 299.8px " y="1266.262px 1266.262px 1266.262px 1266.262px 1266.262px 1266.262px 1266.262px 1266.262px 1266.262px 1266.262px 1266.262px 1266.262px 1266.262px 1266.262px 1266.262px 1266.262px 1266.262px 1266.262px 1266.262px 1266.262px ">owered by LOOM ROOMS</tspan></text>
                </g>
            </g>
        </g>
    </g>
    <defs>
        <linearGradient id="_Linear1" x1="0" y1="0" x2="1" y2="0" gradientUnits="userSpaceOnUse" gradientTransform="matrix(0,-35.742538,35.742538,0,183.450626,1119.212184)"><stop offset="0" style="stop-color:rgb(166,166,166);stop-opacity:1"/><stop offset="0.26" style="stop-color:rgb(231,231,231);stop-opacity:1"/><stop offset="0.5" style="stop-color:white;stop-opacity:1"/><stop offset="0.76" style="stop-color:rgb(234,234,234);stop-opacity:1"/><stop offset="1" style="stop-color:rgb(166,166,166);stop-opacity:1"/></linearGradient>
        <linearGradient id="_Linear2" x1="0" y1="0" x2="1" y2="0" gradientUnits="userSpaceOnUse" gradientTransform="matrix(0,-35.742538,35.742538,0,183.450626,1119.212184)"><stop offset="0" style="stop-color:rgb(166,166,166);stop-opacity:1"/><stop offset="0.26" style="stop-color:rgb(231,231,231);stop-opacity:1"/><stop offset="0.5" style="stop-color:white;stop-opacity:1"/><stop offset="0.76" style="stop-color:rgb(234,234,234);stop-opacity:1"/><stop offset="1" style="stop-color:rgb(166,166,166);stop-opacity:1"/></linearGradient>
        <linearGradient id="_Linear3" x1="0" y1="0" x2="1" y2="0" gradientUnits="userSpaceOnUse" gradientTransform="matrix(0,-35.742538,35.742538,0,183.450626,1119.212184)"><stop offset="0" style="stop-color:rgb(166,166,166);stop-opacity:1"/><stop offset="0.26" style="stop-color:rgb(231,231,231);stop-opacity:1"/><stop offset="0.5" style="stop-color:white;stop-opacity:1"/><stop offset="0.76" style="stop-color:rgb(234,234,234);stop-opacity:1"/><stop offset="1" style="stop-color:rgb(166,166,166);stop-opacity:1"/></linearGradient>
        <linearGradient id="_Linear4" x1="0" y1="0" x2="1" y2="0" gradientUnits="userSpaceOnUse" gradientTransform="matrix(0.553513,-35.742538,35.742538,0.553513,329.09604,1119.212184)"><stop offset="0" style="stop-color:rgb(2,186,251);stop-opacity:1"/><stop offset="0.5" style="stop-color:rgb(161,248,255);stop-opacity:1"/><stop offset="1" style="stop-color:rgb(28,214,255);stop-opacity:1"/></linearGradient>
        <linearGradient id="_Linear5" x1="0" y1="0" x2="1" y2="0" gradientUnits="userSpaceOnUse" gradientTransform="matrix(0.553513,-35.742538,35.742538,0.553513,329.09604,1119.212184)"><stop offset="0" style="stop-color:rgb(2,186,251);stop-opacity:1"/><stop offset="0.5" style="stop-color:rgb(161,248,255);stop-opacity:1"/><stop offset="1" style="stop-color:rgb(28,214,255);stop-opacity:1"/></linearGradient>
        <linearGradient id="_Linear6" x1="0" y1="0" x2="1" y2="0" gradientUnits="userSpaceOnUse" gradientTransform="matrix(0.553513,-35.742538,35.742538,0.553513,329.09604,1119.212184)"><stop offset="0" style="stop-color:rgb(2,186,251);stop-opacity:1"/><stop offset="0.5" style="stop-color:rgb(161,248,255);stop-opacity:1"/><stop offset="1" style="stop-color:rgb(28,214,255);stop-opacity:1"/></linearGradient>
        <linearGradient id="_Linear7" x1="0" y1="0" x2="1" y2="0" gradientUnits="userSpaceOnUse" gradientTransform="matrix(0.553513,-35.742538,35.742538,0.553513,329.09604,1119.212184)"><stop offset="0" style="stop-color:rgb(2,186,251);stop-opacity:1"/><stop offset="0.5" style="stop-color:rgb(161,248,255);stop-opacity:1"/><stop offset="1" style="stop-color:rgb(28,214,255);stop-opacity:1"/></linearGradient>
    </defs>
</svg>
